<svg width="296" height="72" viewBox="0 0 296 72" fill="none" xmlns="http://www.w3.org/2000/svg">
<path d="M47 0.599994H77.3V1.4C73 1.4 66.6 4.5 58.8 22.1L39.1 71H36.2C9.4 12.1 8 9.5 8 9.5C4.4 1.49999 2.9 1.6 0.1 1.4V0.599994H33.4V1.4C26.5 1.4 32 13 32 13L47.5 47.5L57.8 22.1C60.8 14.7 59 1.4 47 1.4V0.599994ZM97.4313 23.9C108.031 23.9 118.131 28.1 118.131 46.9H90.9313C90.9313 62.1 95.7313 66.1 102.431 67.6C107.431 68.7 114.131 65.7 116.131 57.2L117.031 57.4C115.731 64.8 108.431 71.9 95.9313 71.9C82.8313 71.9 72.2313 61.5 72.2313 48C72.2313 31 85.1313 23.9 97.4313 23.9ZM90.9313 46H103.631C103.631 33.4 102.331 24.8 97.8313 24.8C93.2313 24.8 90.9313 36.4 90.9313 46ZM168.442 26.2C172.342 29.6 172.842 35.6 169.442 39.4C166.042 43.3 160.242 43.7 156.242 40.4C154.342 38.6 153.042 36.5 153.042 34.2C153.042 32.9 149.842 33.6 145.742 39.8V59.7C145.742 65.2 146.242 69.2 149.842 70.2V71H124.842V70.2C128.642 69.1 128.742 64.8 128.742 59.7V35.3C128.742 31.8 127.542 30.4 123.442 28.9V28.1L145.742 23.9V37.9C152.842 27.2 155.842 26 158.842 24.6C161.642 23.3 165.842 23.9 168.442 26.2ZM188.516 21.3C183.216 21.3 179.016 17.1 179.016 11.8C179.016 6.5 183.216 2.3 188.516 2.3C193.816 2.3 198.116 6.5 198.116 11.8C198.116 17.1 193.816 21.3 188.516 21.3ZM198.116 59.7C198.116 65.2 198.616 69.2 202.216 70.2V71H177.216V70.2C181.016 69.1 181.116 64.8 181.116 59.7V35.3C181.116 31.8 180.016 30.4 175.916 28.9V28.1L198.116 23.9V59.7ZM237.934 64.6C240.834 64.6 242.834 63 244.034 61.6L244.634 62C243.434 67.3 237.634 71.9 230.234 71.9C222.334 71.9 213.334 68.7 213.334 56.6V25.7H207.034V24.8H213.334V11.4L230.134 9.3V24.8H243.034V25.7H230.134V56.3C230.134 61.9 232.134 64.6 237.934 64.6ZM274.775 23.9C285.375 23.9 295.475 28.1 295.475 46.9H268.275C268.275 62.1 273.075 66.1 279.775 67.6C284.775 68.7 291.475 65.7 293.475 57.2L294.375 57.4C293.075 64.8 285.775 71.9 273.275 71.9C260.175 71.9 249.575 61.5 249.575 48C249.575 31 262.475 23.9 274.775 23.9ZM268.275 46H280.975C280.975 33.4 279.675 24.8 275.175 24.8C270.575 24.8 268.275 36.4 268.275 46Z" fill="black"/>
</svg>
