<svg width="96" height="96" viewBox="0 0 96 96" fill="none" xmlns="http://www.w3.org/2000/svg">
<mask id="mask0_131_6" style="mask-type:luminance" maskUnits="userSpaceOnUse" x="20" y="25" width="56" height="53">
<path d="M75.3228 25.2056H20.6768V77.4408H75.3228V25.2056Z" fill="white"/>
</mask>
<g mask="url(#mask0_131_6)">
<path d="M44.3683 36.2007C44.3683 36.2007 40.2835 27.9625 45.4106 27.9625V27.3923H20.6768V27.9625C22.7574 28.105 23.8722 28.0317 26.5443 33.7207C26.5443 33.7207 27.5825 35.5695 47.4913 77.4407H49.6443L56.2906 61.6525L52.8057 54.1798L44.3683 36.2007Z" fill="#F8C8D6"/>
<path d="M66.8812 41.3644C71.5435 41.3644 75.323 37.7471 75.323 33.285C75.323 28.8228 71.5435 25.2056 66.8812 25.2056C62.219 25.2056 58.4395 28.8228 58.4395 33.285C58.4395 37.7471 62.219 41.3644 66.8812 41.3644Z" fill="#F8C8D6"/>
</g>
<circle cx="48" cy="48" r="47" stroke="#F8C8D6" stroke-width="2"/>
</svg>
